<?xml version="1.0" encoding="utf-8"?>
<!-- Generator: Adobe Illustrator 23.0.1, SVG Export Plug-In . SVG Version: 6.00 Build 0)  -->
<svg version="1.1" id="Слой_1" xmlns="http://www.w3.org/2000/svg" xmlns:xlink="http://www.w3.org/1999/xlink" x="0px" y="0px"
	 viewBox="0 0 370 370" style="enable-background:new 0 0 370 370;" xml:space="preserve">
<style type="text/css">
	.st0{fill:#800080;}
	.st1{fill:#FFFFFF;}
</style>
<g>
	<path class="st0" d="M290.4,370.5H79.6c-44,0-79.6-35.6-79.6-79.6V80.1c0-44,35.6-79.6,79.6-79.6h210.9c43.9,0,79.6,35.6,79.6,79.6
		v210.9C370,334.9,334.4,370.5,290.4,370.5z"/>
</g>
<g>
	<path class="st1" d="M251.1,272.3L97.7,118.9c-5.9-5.9-5.9-15.4,0-21.2s15.4-5.9,21.2,0l153.4,153.4c5.9,5.9,5.9,15.4,0,21.2
		C266.5,278.2,257,278.2,251.1,272.3z"/>
</g>
<g>
	<path class="st1" d="M272.3,118.9L118.9,272.3c-5.9,5.9-15.4,5.9-21.2,0c-5.9-5.9-5.9-15.4,0-21.2L251.1,97.7
		c5.9-5.9,15.4-5.9,21.2,0C278.2,103.5,278.2,113,272.3,118.9z"/>
</g>
</svg>
