<svg width="199" height="199" viewBox="0 0 199 199" fill="none" xmlns="http://www.w3.org/2000/svg">
<g clip-path="url(#clip0)">
<path d="M99.5 198.9C154.4 198.9 199 154.4 199 99.4C198.9 44.5 154.4 0 99.5 0C44.5 0 0 44.5 0 99.5C0 154.4 44.5 198.9 99.5 198.9Z" fill="#800080"/>
<path d="M73 100.5C69.9 100.5 66.9 100.4 63.8 100.4C62.6 100.4 62.6 100.3 63 99.2C65.1 93.4 67.2 87.7 69.3 81.9C69.4 81.6 69.5 81.2 69.6 80.9C69.7 80.8 69.7 80.8 69.7 80.8C69.8 80.7 69.9 80.6 69.9 80.5C71.2 76.9 72.5 73.3 73.8 69.7C73.9 69.5 73.9 69.2 73.9 68.9C74.1 68.8 74.2 68.7 74.3 68.5C75.2 66 76.1 63.6 77 61.1C77.1 60.9 77.1 60.7 77.1 60.6C77.2 60.5 77.3 60.3 77.3 60.2C78 58.4 78.7 56.6 79.3 54.8C79.5 54.3 79.7 54.2 80.2 54.2C83.9 54.2 87.6 54.2 91.3 54.2C91.9 54.2 92.1 54.4 92.2 54.9C92.6 56 93.1 57.2 93.5 58.3C93.5 58.4 93.6 58.6 93.6 58.7C93.5 58.9 93.7 58.9 93.8 58.9C94 59.5 94.2 60 94.4 60.6C95 62.4 95.7 64.3 96.3 66C98 70.8 99.8 75.5 101.6 80.3C103.2 84.8 104.8 89.4 106.5 93.9C107.1 95.7 107.8 97.5 108.5 99.3C108.8 100 108.7 100.3 107.9 100.3C104.4 100.2 101 100.3 97.5 100.3C97 100.3 96.7 100.1 96.6 99.6C96 97.7 95.3 95.7 94.7 93.7C94.5 93.2 94.3 92.9 93.7 93.1C88.4 93.1 83.1 93.1 77.8 93C77.3 93 77.2 93.3 77 93.7C76.5 95.3 75.8 96.8 75.4 98.4C74.9 99.9 74.4 100.7 73 100.5ZM89.8 80.4C89 78 88.3 75.7 87.5 73.3C86.9 71.3 86.2 69.3 85.6 67.3C85.3 68.3 85.1 69.2 84.7 70.1C83.6 73.6 82.5 76.9 81.4 80.4C81.1 81.2 80.8 82 80.5 82.9C83.9 82.9 87.2 82.9 90.6 82.9C90.4 82 90.1 81.2 89.8 80.4Z" fill="white"/>
<path d="M153.1 100.3C151.1 100.5 149.1 100.4 147 100.4C146.7 100.4 146.6 100.2 146.5 100C145.6 96.1 142.7 94.3 139.2 93.2C139 93.1 138.9 93.1 138.7 93.1C136.7 92.9 135 92.2 134.3 90.1C134.3 90 134.1 90 134.1 89.9C134 89.7 134 89.6 134 89.4C132.8 87.4 131.6 85.2 130.4 83.2C130.2 82.8 129.9 82.7 129.5 82.7C128.4 82.7 127.3 82.8 126.2 82.7C125.4 82.6 125.2 83 125.3 83.7C125.4 86.7 125.3 89.7 125.3 92.7C121.4 93.6 117.7 94.8 114.2 96.7C113.4 97.1 113.6 96.4 113.6 96.1C113.6 91.3 113.6 86.6 113.6 81.8C113.6 81.4 113.5 81.1 113.5 80.7C113.5 80.3 113.6 80 113.6 79.6C113.6 75.1 113.6 70.6 113.6 66.1C113.6 64.2 113.5 62.4 113.5 60.5C113.5 60.3 113.5 60.1 113.4 59.9C113.4 59.6 113.5 59.2 113.5 58.9C113.6 57.3 113.4 55.7 113.6 54.1C117.2 54.1 120.8 54.1 124.3 54C125 54 125.2 54.3 125.2 54.9C125.2 56.7 125.2 58.5 125.3 60.2C125.3 63.7 125.2 67.2 125.2 70.8C125.2 71.2 125.4 71.3 125.8 71.3C127.1 71.3 128.4 71.3 129.7 71.3C129.9 71.3 130.2 71.4 130.3 71.1C131.2 69.3 132.4 67.6 133.1 65.8C134.2 64.3 134.9 62.7 135.8 61.1C137 59 138.2 56.9 139.3 54.8C139.6 54.3 139.9 54 140.5 54C144.1 54 147.7 54 151.2 54C152.6 54.1 152.6 54.1 151.9 55.3C151.7 55.7 151.5 56.1 151.2 56.5C150.2 58 149.3 59.5 148.4 61.1C148.2 61.3 148.1 61.5 148 61.7C145.1 66.5 142.2 71.3 139.4 76.1C139.2 76.4 139.2 76.6 139.4 76.9C140.2 78.1 140.9 79.4 141.7 80.6C145.3 86.9 149 93.1 152.7 99.3C153 99.7 153.3 100 153.1 100.3Z" fill="white"/>
<path d="M55.6998 54.1C58.6998 54.1 61.5998 54.2 64.5998 54.1C65.3998 54.1 65.6998 54.3 65.5998 55.1C65.4998 57.1 65.5998 59.2 65.5998 61.3C65.5998 62.2 65.5998 63.2 65.4998 64.1C65.4998 65.4 65.4998 65.4 64.1998 65.4C60.9998 65.4 57.8998 65.4 54.6998 65.5C54.2998 65.6 53.5998 65.1 53.5998 66.1C53.6998 70 53.6998 73.8 53.6998 77.7C53.5998 78.4 53.5998 79.1 53.6998 79.9C53.5998 80.2 53.5998 80.4 53.6998 80.7C53.6998 82.6 53.6998 84.6 53.7998 86.5C53.7998 90.5 53.6998 94.6 53.6998 98.6C53.6998 99.1 53.6998 99.7 53.6998 100.3C53.3998 100.6 53.0998 100.6 52.6998 100.6C51.9998 100.6 51.2998 100.5 50.5998 100.7C48.1998 100.7 45.8998 100.6 43.4998 100.6C42.9998 100.6 42.4998 100.5 41.9998 100.5C41.7998 100.1 41.8998 99.7 41.8998 99.4C41.8998 95.7 41.8998 92.1 41.8998 88.5C41.8998 86.2 41.7998 84 41.7998 81.7C41.7998 81.6 41.7998 81.4 41.7998 81.3C41.7998 76.2 41.8998 71.2 41.8998 66.1C41.8998 65.7 41.6998 65.6 41.2998 65.6C39.8998 65.7 38.5998 65.7 37.0998 65.7C35.1998 65.7 33.1998 65.6 31.2998 65.6C29.9998 65.6 29.9998 65.6 29.7998 64.2C29.7998 64.1 29.7998 63.9 29.7998 63.8C29.7998 60.9 29.8998 58.1 29.7998 55.3C29.7998 54.5 29.9998 54.2 30.7998 54.3C33.1998 54.4 35.6998 54.3 38.0998 54.3C44.2998 54.1 49.9998 54.1 55.6998 54.1Z" fill="white"/>
<path d="M166.4 100.3C163.9 101.6 161.4 101.7 158.9 100.5C157.8 99.7 157 98.7 156.5 97.4C154.9 92.9 156.9 89.2 161.5 88C161.8 88 162 88 162.3 88C165.6 88.1 168 89.4 168.8 92.7C169.3 95.6 168.8 98.3 166.4 100.3Z" fill="white"/>
<path d="M96.9999 168.3C92.5999 168.3 88.9999 168.1 85.6999 167.9C81.3999 167.5 76.3999 166.9 71.7999 165.1C70.2999 164.6 69.2999 163.9 68.3999 163.2C66.3999 161.5 65.8999 159.4 66.8999 156.9C67.6999 155 69.0999 153.6 70.0999 152.6C74.5999 148.5 79.9999 146 84.6999 144C91.9999 140.9 100.2 138.7 109.8 137.3C110.4 137.2 111.1 137.1 111.7 137C112.6 136.9 113.4 136.8 114.2 136.6C114.4 136.6 114.5 136.5 114.6 136.5C115.1 136.5 115.6 136.7 116.1 137C117.2 137.9 118.4 138.7 119.5 139.5C120.3 140.1 121.1 140.6 121.9 141.2L122 141.3C122.9 141.9 122.9 142.6 122.8 143C122.6 143.6 122.1 144 121.5 144C121.3 144 121.2 143.9 121.1 143.9H121C119.2 143.7 117.4 143.6 115.4 143.6C113 143.6 110.4 143.8 107.2 144.1C100.1 144.8 93.4999 146.3 87.3999 148.5C81.7999 150.5 77.4999 152.8 73.9999 155.6C73.0999 156.4 72.4999 156.9 72.0999 157.6C71.7999 158.1 71.6999 158.5 71.7999 158.6C71.8999 158.8 72.0999 158.9 72.6999 159.1C73.8999 159.4 75.1999 159.5 76.4999 159.5C76.7999 159.5 77.0999 159.5 77.3999 159.6C79.3999 159.7 81.6999 159.7 84.4999 159.7C86.0999 159.7 87.6999 159.7 89.2999 159.6C90.8999 159.6 92.4999 159.6 94.0999 159.6H93.9999C95.5999 159.6 97.1999 159.6 98.6999 159.6C100.3 159.6 101.9 159.6 103.4 159.6C105.7 159.6 107.6 159.6 109.4 159.5C116 159.3 121.2 158.9 125.9 158C126.3 157.9 126.4 157.8 126.6 157.6C128.6 155 129.1 151.9 128.2 148.2C127.3 144.5 125.3 141.4 122.9 137.6C120.5 134 117.7 130.6 115.1 127.3C113.6 125.5 112.1 123.5 110.6 121.6L110.1 120.9C109.1 119.6 108.1 118.3 107.2 116.8C104.2 111.8 104.7 106.8 108.7 102.7C112.3 98.9 117.1 96.3 123.6 94.5C126.3 93.7 128.9 93.4 131.5 93.4C134.1 93.4 136.7 93.8 139.2 94.5C140.8 94.9 142.1 95.7 143.1 96.7C144.7 98.2 145.4 100 145.1 102.1C144.8 104 144.2 105.9 143.4 107.8C142.8 109.1 141.9 110 140.8 110.3C140.5 110.4 140.2 110.5 139.9 110.5C139 110.5 138 110 138 108.3C137.9 107.2 138.3 106.4 138.6 105.5L138.7 105.3C139.6 103 139.1 101.6 136.9 100.4C135.6 99.7 134.1 99.3 132 99C130.7 98.8 129.5 98.7 128.3 98.7C124.6 98.7 121.4 99.5 118.4 101.1C116.8 102 115.6 103 114.7 104.2C113.5 105.9 113.2 107.5 114.1 109.4C115.1 111.7 116.6 113.7 118.1 115.7L118.5 116.3C119.9 118.2 121.4 120.1 122.9 121.9C125.1 124.7 127.4 127.6 129.5 130.6C132.1 134.4 134.7 138.6 136 143.5C136.8 146.5 137 149.4 136.6 152.2C136.1 156.3 133.8 159.6 129.8 162.2C125.8 164.7 121.3 165.8 117.4 166.6C112 167.7 106.6 167.9 101.5 168C99.8999 168.3 98.3999 168.3 96.9999 168.3Z" fill="#010100"/>
<path d="M131.6 94.6C134 94.6 136.5 94.9 138.9 95.7C140.2 96.1 141.4 96.7 142.5 97.6C143.8 98.8 144.4 100.3 144.2 102.1C143.9 104 143.4 105.8 142.6 107.4C142.2 108.3 141.6 109 140.7 109.3C140.5 109.4 140.3 109.4 140.2 109.4C139.7 109.4 139.3 109 139.3 108.3C139.3 107.4 139.6 106.6 139.9 105.8C141 102.9 140.3 101.1 137.6 99.6C136 98.7 134.1 98.3 132.3 98.1C131 97.9 129.7 97.8 128.5 97.8C124.9 97.8 121.4 98.6 118.1 100.3C116.5 101.2 115.1 102.2 114.1 103.7C112.6 105.6 112.4 107.7 113.4 110C114.6 112.6 116.3 114.9 118 117.1C121.6 121.9 125.5 126.4 128.9 131.3C131.5 135.2 134 139.2 135.2 143.9C135.9 146.6 136.2 149.4 135.8 152.1C135.3 156.3 132.9 159.2 129.4 161.3C125.7 163.6 121.6 164.7 117.3 165.6C112.1 166.7 106.8 166.9 101.6 166.9C99.9999 166.9 98.4999 167 96.8999 167C93.1999 167 89.4999 166.9 85.6999 166.6C81.0999 166.2 76.4999 165.6 72.0999 163.8C70.9999 163.4 69.8999 162.8 68.9999 162C67.3999 160.6 66.9999 158.9 67.7999 156.9C68.3999 155.3 69.4999 154.1 70.7999 153C74.9999 149.2 79.9999 146.7 85.0999 144.5C92.9999 141.1 101.4 139.1 109.9 137.8C111.4 137.6 112.9 137.4 114.4 137.2C114.5 137.2 114.6 137.2 114.7 137.2C115 137.2 115.2 137.3 115.5 137.5C117.4 138.9 119.4 140.3 121.3 141.7C121.5 141.9 121.8 141.9 121.7 142.3C121.6 142.5 121.5 142.5 121.4 142.5C121.3 142.5 121.1 142.4 121 142.4C119.1 142.2 117.2 142.1 115.2 142.1C112.4 142.1 109.6 142.3 106.8 142.6C99.9999 143.3 93.1999 144.7 86.6999 147C81.7999 148.8 77.0999 151 72.9999 154.3C72.1999 154.9 71.3999 155.7 70.7999 156.6C69.7999 158.2 70.2999 159.2 71.9999 159.7C73.5999 160.1 75.2999 160.1 76.8999 160.2C79.2999 160.3 81.5999 160.3 83.9999 160.3C87.1999 160.3 90.3999 160.2 93.5999 160.2C93.6999 160.2 93.6999 160.2 93.7999 160.2C96.9999 160.2 100.1 160.3 103.3 160.3C105.3 160.3 107.3 160.3 109.3 160.2C114.9 160.1 120.5 159.7 126 158.7C126.6 158.6 127 158.4 127.3 157.9C129.6 154.8 130 151.3 129.1 147.6C128.1 143.5 125.9 140.1 123.6 136.7C119.8 131.1 115.4 126 111.3 120.6C110.1 119 108.9 117.5 107.9 115.9C105.2 111.4 105.6 106.8 109.2 103.1C113.2 98.9 118.2 96.7 123.6 95.2C126.4 95 129 94.6 131.6 94.6ZM131.6 92.5C128.9 92.5 126.2 92.9 123.4 93.6C116.6 95.4 111.7 98.1 108 102.1C103.7 106.6 103.1 112.2 106.4 117.6C107.3 119.1 108.3 120.5 109.4 121.8C109.6 122 109.8 122.3 109.9 122.5C111.4 124.4 112.9 126.4 114.4 128.2C117 131.5 119.8 134.9 122.2 138.4C124.6 142 126.6 145 127.4 148.6C128.2 152 127.7 154.7 126 157.1C126 157.1 126 157.1 125.9 157.1C121.2 157.9 116.1 158.4 109.6 158.5C107.8 158.6 105.9 158.6 103.6 158.6C102 158.6 100.4 158.6 98.8999 158.6C97.2999 158.6 95.6999 158.6 94.1999 158.6H93.9999C92.3999 158.6 90.7999 158.6 89.1999 158.6C87.5999 158.6 85.9999 158.6 84.3999 158.6C81.6999 158.6 79.3999 158.5 77.2999 158.5C76.9999 158.5 76.6999 158.5 76.3999 158.4C75.1999 158.3 73.9999 158.3 72.8999 158.1C73.2999 157.6 73.7999 157 74.5999 156.4C78.0999 153.7 82.1999 151.4 87.5999 149.4C93.5999 147.2 100.2 145.8 107.2 145.1C110.4 144.8 113 144.6 115.3 144.6C117.2 144.6 119 144.7 120.7 144.9C120.8 145 121.1 145 121.4 145C122.5 145 123.4 144.3 123.8 143.2C123.9 142.8 124.2 141.3 122.6 140.2C121.8 139.6 121 139.1 120.3 138.5C119.2 137.7 118 136.8 116.8 136C116.2 135.5 115.5 135.3 114.8 135.3C114.6 135.3 114.4 135.3 114.2 135.4C113.4 135.5 112.5 135.7 111.7 135.8C111.1 135.9 110.4 136 109.7 136.1C100.1 137.5 91.8999 139.8 84.3999 142.9C79.6999 144.9 74.1999 147.5 69.4999 151.7C68.2999 152.8 66.8999 154.3 65.9999 156.4C64.7999 159.3 65.3999 161.8 67.7999 163.9C68.7999 164.8 69.9999 165.5 71.4999 166.1C76.2999 168 81.2999 168.6 85.6999 169C88.9999 169.3 92.6999 169.4 97.0999 169.4C98.4999 169.4 99.9999 169.4 101.8 169.3C106.9 169.2 112.4 169 117.9 167.9C121.9 167.1 126.5 166 130.7 163.3C135.1 160.5 137.5 157 138.1 152.5C138.5 149.6 138.2 146.5 137.5 143.4C136.2 138.3 133.4 133.9 130.9 130.2C128.9 127.1 126.5 124.3 124.3 121.5C122.8 119.7 121.3 117.8 119.9 115.9L119.5 115.3C118 113.3 116.5 111.4 115.6 109.2C114.9 107.7 115.1 106.4 116.1 105.1C116.9 104 118 103.1 119.4 102.3C122.2 100.8 125.3 100 128.7 100C129.8 100 131 100.1 132.3 100.2C134.2 100.5 135.6 100.8 136.8 101.5C138.5 102.5 138.8 103.2 138.1 105.1L138 105.3C137.7 106.2 137.2 107.2 137.3 108.5C137.4 110.7 138.9 111.7 140.3 111.7C140.7 111.7 141.1 111.6 141.5 111.5C143.6 110.9 144.5 109 144.7 108.4C145.6 106.5 146.2 104.5 146.5 102.5C146.9 100 146 97.8 144.1 96.1C142.9 95 141.4 94.2 139.7 93.7C136.9 92.8 134.2 92.5 131.6 92.5Z" fill="white"/>
<path d="M153.8 167.7C153.3 167.7 152.8 167.6 152.4 167.6C148.6 167 146.2 164.3 145.9 160.2C145.6 156.3 146.5 152.6 147.4 149.1C148 146.5 148.8 143.9 149.5 141.3C149.9 139.8 150.3 138.4 150.7 136.9C151 135.8 151.8 135.6 152.4 135.6C153.3 135.6 154.1 135.6 154.9 135.6C155.5 135.6 156.2 135.6 156.8 135.6H157.6C157.9 135.6 158.8 135.6 159.2 136.3C159.5 136.8 159.5 137.3 159.1 138C157.5 141 156.7 144.3 155.9 147.8C155.6 148.8 155.4 149.9 155.1 151C155 151.5 154.8 151.9 154.7 152.4C154.1 155 153.4 157.6 152.1 160.1C152.2 160.1 154.3 160.1 154.3 160.1C154.8 160.1 155.2 160.2 155.6 160.2C158.6 160.2 161 159.6 163 158.4C163.2 158.3 163.4 158.1 163.9 158.1C164.2 158.1 164.5 158.2 164.9 158.5C165.4 159 165.4 159.7 165 160.3L164.6 160.8C162.6 163.6 160.5 166.4 156.6 167.4C155.7 167.5 154.7 167.7 153.8 167.7Z" fill="#010100"/>
<path d="M152.4 136.7C153.3 136.7 154.1 136.7 154.9 136.7C155.8 136.7 156.7 136.7 157.6 136.7C158.1 136.7 158.5 136.8 158.1 137.5C155.9 141.7 155.2 146.2 154 150.7C153.1 154 152.4 157.5 150.7 160.6C150.4 161.2 150.7 161.2 151.1 161.2C151.5 161.2 152 161.2 152.4 161.2C153 161.2 153.6 161.2 154.2 161.2C154.7 161.2 155.2 161.3 155.6 161.3C158.4 161.3 161.1 160.8 163.6 159.3C163.7 159.2 163.8 159.2 163.9 159.2C164 159.2 164.1 159.3 164.1 159.3C164.3 159.5 164.2 159.6 164.1 159.7C162.1 162.5 160.1 165.5 156.4 166.4C155.5 166.6 154.6 166.8 153.7 166.8C153.3 166.8 152.9 166.7 152.5 166.7C149.2 166.2 147.2 163.8 146.9 160.3C146.7 156.6 147.4 153.1 148.4 149.6C149.4 145.6 150.6 141.5 151.7 137.5C151.8 136.8 151.9 136.7 152.4 136.7ZM152.4 134.5C151.8 134.5 150.2 134.7 149.6 136.7C149.2 138.2 148.8 139.6 148.4 141.1C147.7 143.6 147 146.3 146.3 148.9C145.4 152.2 144.5 156.2 144.8 160.3C145.1 164.9 147.9 168.1 152.2 168.7C152.7 168.8 153.2 168.8 153.8 168.8C154.8 168.8 155.8 168.6 157 168.4C161.3 167.4 163.6 164.2 165.6 161.4L166 160.9C166.8 159.9 166.6 158.6 165.8 157.7C165.3 157.2 164.7 156.9 164 156.9C163.3 156.9 162.8 157.2 162.7 157.3C160.8 158.4 158.5 159 155.8 159C155.4 159 154.9 159 154.5 158.9C154.4 158.9 154.4 158.9 154.4 158.9H153.9C154.8 156.8 155.3 154.6 155.8 152.5C155.9 152 156 151.6 156.2 151.1C156.5 150 156.7 148.9 157 147.9C157.8 144.5 158.6 141.3 160.1 138.4C160.7 137.1 160.4 136.1 160.2 135.7C159.9 135.2 159.1 134.5 157.7 134.5H156.9C156.3 134.5 155.6 134.5 155 134.5C154.1 134.5 153.3 134.5 152.6 134.5H152.4Z" fill="white"/>
<path d="M156.5 132.3C156.2 132.3 155.9 132.2 155.6 132.1C153.9 131.5 154 129.9 154 129.1C154 128.9 154 128.6 154 128.5C154 128.4 154 128.3 154 128.3C154.1 125.8 154.3 123.6 155.1 121.5C156.1 119 157.9 117.7 160.2 117.7C160.5 117.7 160.7 117.7 161.1 117.8C162.4 118 163.7 118.8 164.2 119.9C164.7 120.9 164.7 122.2 164.1 123.3C162.6 126.2 161.1 128.4 159.5 130.4L159.3 130.6C158.7 131.3 157.9 132.3 156.5 132.3Z" fill="#010100"/>
<path d="M160.2 118.7C160.4 118.7 160.7 118.7 160.9 118.8C162.6 119 164.2 120.6 163.1 122.7C161.8 125.1 160.4 127.5 158.7 129.6C158.1 130.3 157.5 131.2 156.5 131.2C156.3 131.2 156.2 131.1 156 131.1C154.7 130.7 155.3 129.3 155.1 128.3C155.2 126 155.3 123.9 156.1 121.8C156.9 119.8 158.3 118.7 160.2 118.7ZM160.2 116.6C157.4 116.6 155.2 118.2 154.2 121.1C153.3 123.4 153.1 125.7 153 128.3C153 128.5 153 128.6 153.1 128.7C153.1 128.8 153.1 129 153.1 129.1C153 129.9 152.9 132.3 155.4 133.1C155.8 133.3 156.2 133.3 156.6 133.3C158.5 133.3 159.6 131.9 160.3 131.1C160.4 131 160.4 130.9 160.5 130.9C162.2 128.9 163.6 126.6 165.2 123.6C166 122.1 166 120.5 165.3 119.2C164.5 117.8 163 116.8 161.4 116.6C160.8 116.6 160.5 116.6 160.2 116.6Z" fill="white"/>
</g>
<defs>
<clipPath id="clip0">
<rect width="198.9" height="198.9" fill="white"/>
</clipPath>
</defs>
</svg>
