<?xml version="1.0" encoding="utf-8"?>
<!-- Generator: Adobe Illustrator 23.0.1, SVG Export Plug-In . SVG Version: 6.00 Build 0)  -->
<svg version="1.1" id="Слой_1" xmlns="http://www.w3.org/2000/svg" xmlns:xlink="http://www.w3.org/1999/xlink" x="0px" y="0px"
	 viewBox="0 0 370 370" style="enable-background:new 0 0 370 370;" xml:space="preserve">
<style type="text/css">
	.st0{fill:#800080;}
	.st1{fill:#FFFFFF;}
</style>
<g>
	<g>
		<path class="st0" d="M290.43,370.5H79.57C35.62,370.5,0,334.88,0,290.93V80.07C0,36.12,35.62,0.5,79.57,0.5h210.87
			C334.38,0.5,370,36.12,370,80.07v210.87C370,334.88,334.38,370.5,290.43,370.5z"/>
	</g>
	<g>
		<path class="st1" d="M293.5,109h-217c-8.28,0-15-6.72-15-15s6.72-15,15-15h217c8.28,0,15,6.72,15,15S301.78,109,293.5,109z"/>
	</g>
	<g>
		<path class="st1" d="M293.5,198.5h-217c-8.28,0-15-6.72-15-15s6.72-15,15-15h217c8.28,0,15,6.72,15,15S301.78,198.5,293.5,198.5z"
			/>
	</g>
	<g>
		<path class="st1" d="M293.5,288h-217c-8.28,0-15-6.72-15-15s6.72-15,15-15h217c8.28,0,15,6.72,15,15S301.78,288,293.5,288z"/>
	</g>
</g>
</svg>
