<?xml version="1.0" encoding="utf-8"?>
<!-- Generator: Adobe Illustrator 23.0.3, SVG Export Plug-In . SVG Version: 6.00 Build 0)  -->
<svg version="1.1" id="Layer_1" xmlns="http://www.w3.org/2000/svg" xmlns:xlink="http://www.w3.org/1999/xlink" x="0px" y="0px"
	 viewBox="0 0 141.7 141.7" style="enable-background:new 0 0 141.7 141.7;" xml:space="preserve">
<style type="text/css">
	.st0{fill:#FFFFFF;}
	.st1{fill:#800080;}
</style>
<g>
	<path class="st0" d="M120.5,20C107.2,7,89.5-0.1,70.7,0C51.4,0.1,33.5,7.6,20.3,21C7,34.5-0.2,52.3,0,71.3
		c0.2,19.8,8.1,38.1,22.3,51.4c13.1,12.2,30.4,19.1,48,19.1c1.3,0,2.6,0,3.8-0.1c17.4-0.6,34.6-8.1,47.2-20.8
		c13.3-13.3,20.5-31.2,20.4-50.2C141.6,51.2,134.1,33.3,120.5,20z"/>
	<path class="st1" d="M27.5,86.8c2.4,2.5,5,5.1,7.9,8.1c11.8-11.8,23.7-23.7,35.9-36c11.9,11.9,23.8,23.8,35.4,35.4
		c2.6-2.6,5.3-5.1,7.6-7.4C99.9,72.4,85.2,57.8,70.9,43.4C56.4,57.8,41.8,72.4,27.5,86.8z"/>
	<path class="st1" d="M117.4,23.3C105,11.2,88.6,4.5,71.1,4.5c-0.1,0-0.3,0-0.4,0c-18.1,0.1-34.8,7.1-47.2,19.6
		C11.1,36.8,4.4,53.5,4.5,71.3c0.2,18.6,7.6,35.7,20.9,48.1c12.3,11.5,28.4,17.9,44.9,17.9c1.2,0,2.4,0,3.6-0.1
		c16.3-0.5,32.4-7.6,44.2-19.4c12.4-12.5,19.2-29.2,19.1-47C137.1,52.5,130.1,35.7,117.4,23.3z M131.8,67.9
		c0.8,16.4-4.8,32.1-15.9,44.2c-11,12-26.3,19.1-42.2,19.7c-33.8,1.2-62.4-24.8-63.9-58C8.4,40,34.5,11.3,68,9.8
		c0.9,0,1.8-0.1,2.7-0.1c15.4,0,30,5.7,41.4,16.2C124.2,37,131.2,51.9,131.8,67.9z"/>
	<path class="st1" d="M70.9,43.4c14.4,14.4,29,29,43.5,43.5c-2.4,2.3-5,4.9-7.6,7.4C95.2,82.8,83.2,70.8,71.4,58.9
		c-12.3,12.3-24.1,24.2-35.9,36c-2.9-3-5.5-5.6-7.9-8.1C41.8,72.4,56.4,57.8,70.9,43.4z"/>
	<path class="st1" d="M27.5,86.8c2.4,2.5,5,5.1,7.9,8.1c11.8-11.8,23.7-23.7,35.9-36c11.9,11.9,23.8,23.8,35.4,35.4
		c2.6-2.6,5.3-5.1,7.6-7.4C99.9,72.4,85.2,57.8,70.9,43.4C56.4,57.8,41.8,72.4,27.5,86.8z"/>
</g>
</svg>
